<!-- <svg xmlns="http://www.w3.org/2000/svg" fill="none" viewBox="0 0 128 128">
    <path d="M50.4 78.5a75.1 75.1 0 0 0-28.5 6.9l24.2-65.7c.7-2 1.9-3.2 3.4-3.2h29c1.5 0 2.7 1.2 3.4 3.2l24.2 65.7s-11.6-7-28.5-7L67 45.5c-.4-1.7-1.6-2.8-2.9-2.8-1.3 0-2.5 1.1-2.9 2.7L50.4 78.5Zm-1.1 28.2Zm-4.2-20.2c-2 6.6-.6 15.8 4.2 20.2a17.5 17.5 0 0 1 .2-.7 5.5 5.5 0 0 1 5.7-4.5c2.8.1 4.3 1.5 4.7 4.7.2 1.1.2 2.3.2 3.5v.4c0 2.7.7 5.2 2.2 7.4a13 13 0 0 0 5.7 4.9v-.3l-.2-.3c-1.8-5.6-.5-9.5 4.4-12.8l1.5-1a73 73 0 0 0 3.2-2.2 16 16 0 0 0 6.8-11.4c.3-2 .1-4-.6-6l-.8.6-1.6 1a37 37 0 0 1-22.4 2.7c-5-.7-9.7-2-13.2-6.2Z" />
    <style>
        path { fill: #000; }
        @media (prefers-color-scheme: dark) {
            path { fill: #FFF; }
        }
    </style>
</svg> -->

<svg xmlns="http://www.w3.org/2000/svg" version="1.0" viewBox="0 0 128 128"><path d="M821 751c-1.1 1.1-2 3-2 4.2 0 3.7 8.2 22.7 14.2 32.9 24.9 42.2 61.7 68.7 110.1 78.9l10.7 2.3v25.5l-52.2.5c-45.1.3-53.3.6-59.8 2.1-18.3 4.3-35.2 13.4-49 26.4-18.2 17.1-28 34.6-33 59.1-1.9 9.6-2 13.6-2 112.3 0 88.3.2 103.5 1.6 111.3 4.2 24.2 14 42.3 33.3 61.5 13 12.9 21.3 18.4 37.7 24.9 20.2 8.1 7.2 7.5 171.4 7.9 98 .2 149.5 0 155.6-.7 23-2.7 46-13.1 61.8-28 17.8-17 29-36.8 33.6-59.3 2.1-10.2 2.1-11.4 2-180.3 0-111.1-.4-172.3-1.1-176.5-1.2-8-5.9-22-9.8-29.7-16-31.6-49.9-54.8-85.8-58.8l-6.1-.7 1.4-4c1.8-5.2 1.8-8.8-.2-11.6l-1.5-2.2H987.4c-163.1 0-164.4 0-166.4 2m268.1 32.8c-2 3.8-23.1 23-31.7 28.9-16.9 11.5-36.3 19.6-55.4 22.9-12.5 2.1-37.6 1.4-50-1.4-18.8-4.4-35.7-11.9-50.3-22.3-8.1-5.8-29.7-26.8-29.7-29 0-.5 42.6-.9 109-.9 105.7 0 109 .1 108.1 1.8m75.9 20.8c9.9 2.3 23.5 9.3 30.8 15.9 10.5 9.6 19.4 23.8 22.9 36.7 1.6 5.8 1.8 19.5 2.1 168.8.2 110 0 165.5-.7 171.7-1.4 11.6-5.3 21.8-12.5 32.8-20 29.9-55.6 41.4-85.8 27.7-13.8-6.3-27.9-20.6-35.3-35.7-6.9-14.1-6.5-2.1-6.5-189 0-189.2-.5-174.6 7.5-191 9.6-19.6 24.6-32.5 43.7-37.5 9.1-2.4 24.7-2.6 33.8-.4M1045.5 877v18H1016v-27.6l9.3-2.3c5-1.2 11.2-3.1 13.7-4.1s5-1.8 5.5-1.9c.6-.1 1 6.5 1 17.9m-.8 55.5c.2.1.4 62.9.6 139.6l.2 139.4 2.2 7.6c4 14.3 11.6 29.3 19.9 39.6 1.9 2.3 3.4 4.4 3.4 4.7s-47.9.6-106.3.6c-102.4 0-106.7-.1-114-2-26.4-6.7-47.5-28.1-55.4-56-1.7-6.1-1.8-12.7-1.8-110V992.5l2.3-8c4.1-14.2 8.6-22 18.7-32.1 12.4-12.5 23.9-18.2 40.7-20.3 5.1-.7 188.7-.3 189.5.4"/><path d="M1128.1 849.1c-8.6 2.8-17.9 11.7-21 20.2l-2.1 5.8v138.8c0 135.7 0 138.9-2 143.3-10.5 23.8 2.4 53.6 27 62.3 36 12.7 70.5-17.4 62.6-54.5-2.7-12.9-9.3-22.8-19.5-29.6l-4.1-2.7V1116h12.3c11.9 0 12.4-.1 14.7-2.5 2.9-3.1 3.2-8.5.5-11.5-1.6-1.8-3-2-13.1-2-6.2 0-11.9-.3-12.8-.6-1.2-.5-1.6-2.1-1.6-7.5v-6.9h11.9c6.6 0 12.7-.3 13.6-.6 2-.8 4.5-5.6 4.5-8.7 0-1.3-.9-3.6-2.1-5.1-2-2.6-2.2-2.6-15-2.6H1169v-14h12.9c12.8 0 13 0 15-2.6 2.9-3.7 2.7-8.9-.4-11.9-2.3-2.4-3-2.5-14.3-2.5-13.6 0-13.2.3-13.2-9.3v-4.7h12.5c12 0 12.7-.1 15-2.5 1.7-1.6 2.5-3.5 2.5-6s-.8-4.4-2.5-6c-2.3-2.4-3-2.5-15-2.5h-12.6l.3-7.3.3-7.2 13-.3c14.8-.3 16.5-1.1 16.5-8.2 0-6.4-2.2-7.4-16.9-8l-12.6-.5v-14l11.5-.2c14.2-.3 15.4-.6 16.8-3.8 1.9-4 1.4-7.4-1.3-10-2.3-2.4-3.1-2.5-13.4-2.5-6 0-11.6-.3-12.5-.6-1.2-.5-1.6-2.1-1.6-7.5V929h12.9c12.8 0 13 0 15-2.6 2.7-3.5 2.7-7.6-.2-11-2.3-2.6-2.8-2.7-15.1-3.2l-12.7-.5.3-6.6.3-6.6 12.5-.5c6.9-.3 13.1-.9 13.8-1.3 2.4-1.6 3.3-5.7 2.1-9.4-1.6-5.1-5-6.3-17.2-6.3h-10.4l-.6-5.9c-1.7-19.3-22.4-32.3-41.6-26m14.4 27.4 2.5 2.4V1015c0 108 .3 136.1 1.3 136.4.6.2 3.2.9 5.7 1.6 6 1.6 13.1 8.9 14.9 15.3 2.9 10.1-2 21-11.2 25.2-9.5 4.5-18.8 2.6-25.9-5.3-6.3-7-7.6-16.6-3.2-24.8 2.6-4.9 2.6-4.9 2.2-25.4-.1-11.3-.2-74.1 0-139.6l.2-119.1 2.5-2.7c3.2-3.4 7.7-3.5 11-.1m-316.3 91.8c-8.7 5-8 18.7 1.1 23 4.4 2.1 5.2 2.1 10.2-.3 8.1-3.9 10.1-13.2 4.2-19.6-2.8-3.1-4.1-3.7-8.3-4.1-3-.2-5.8.2-7.2 1m140.1 3.2c-1.7.7-3.3 2-3.7 3-.3.9-.6 9.7-.6 19.6 0 17.8 0 18 2.5 20.4 1.5 1.6 3.6 2.5 5.5 2.5s4-.9 5.5-2.5c2.5-2.4 2.5-2.6 2.5-20.8 0-17.8-.1-18.4-2.2-20.4-3.1-2.7-5.9-3.3-9.5-1.8m-30.3 3.2c-1.9 2.4-2.1 3.5-1.5 10.3.3 4.1.9 8.7 1.1 10.2 1.1 5.5 8.5 7.7 12.4 3.8 1.7-1.7 2-3.3 2-11.9 0-8.4-.3-10.2-2.1-12.5-2.9-3.7-8.9-3.7-11.9.1m-26.7 4.3c-1.2.5-2.9 2.1-3.9 3.5-1.6 2.5-1.5 2.9 1.6 10.8 1.7 4.5 4.1 9.2 5.3 10.4 3.9 4.3 10.7 2 12.2-4 .6-2.3-4.6-17.1-6.8-19.4-1.7-1.7-5.9-2.4-8.4-1.3m87.9-.3c-1.7.6-3.5 4.4-6.1 12.2-2.7 8.2-2.6 9.2.4 12.5 3.2 3.5 7.6 3.5 10.4 0 4.4-5.6 7.6-18.6 5.3-22-1.7-2.7-6.7-4-10-2.7m-118.8 15.6c-3.6 3.1-3.4 7.3.6 14 6.7 10.9 11.5 13.3 16.5 8.2 3.3-3.2 3.1-6.1-.5-13.1-5.6-10.7-11.1-13.8-16.6-9.1m145.8.9c-3.4 3.7-9.2 14-9.2 16.4 0 2.7 5.3 7.4 8.3 7.4 1.2 0 3-.7 3.9-1.4 2.7-2 9.8-14.8 9.8-17.7 0-6-8.6-9.1-12.8-4.7m-171.7 17c-5.9 3.4-6.1 9.2-.6 14.7 6.7 6.7 14.2 12.1 16.7 12.1 3.5 0 7.4-4.2 7.4-8.1 0-2.5-1.3-4.5-6.7-10.1-9.1-9.3-12.5-11.1-16.8-8.6m48.8 17.5c1 1.9 23.7 41.9 29.3 51.6l6.2 10.8-1.5 4.7c-1.9 6.3-1.2 16.4 1.6 21.9 4.7 9.3 15.4 16.1 25.9 16.4 2.6.1 6.1.9 7.7 1.7 3.9 1.9 26.2 17.2 43.9 30.1 13.9 10.1 17.6 11.7 20.4 8.9 2.9-2.9 1.2-6.6-10.1-22-6.2-8.4-15.8-21.3-21.2-28.7l-10-13.5-.6-7.6c-.8-8.8-3.2-14.3-8.7-19.8-4.7-4.7-9.5-7-17.7-8.5-6.8-1.3-5.8-.6-48.3-34.5-13.5-10.8-18.3-14-16.9-11.5m-70.6 14.3c-5.3 6.3-3.3 9.9 8.8 15.6 6.9 3.3 10.1 4.3 12 3.8 5.4-1.4 7.2-8.4 3.3-12.8-2.8-3-13.5-8.5-18.1-9.3-2.9-.4-3.7 0-6 2.7m-9.6 32.6c-5.3 6.7-1 12.1 11.7 14.8 6.6 1.4 8.5 1.5 10.4.5 3.3-1.7 4.7-4 4.8-7.2 0-4.4-3.6-7.2-11.9-9-10.2-2.4-12.6-2.2-15 .9m-6.2 33.3c-1.6 1.6-2.9 3.7-2.9 4.6 0 2.4 2.7 7.2 4.5 7.9.8.3 7.7.6 15.2.7l13.7.1 2.9-3.2c3.4-3.8 3.1-7.2-.9-10.8-2.3-2-3.4-2.2-16-2.2h-13.6zm17.6 35.1c-8.6 3.1-10.5 4.8-10.5 9.2 0 3.2 3.9 7.8 6.6 7.8 1 0 5.5-1.2 10.1-2.6 11.7-3.6 15.1-8.6 10.2-14.8-2.7-3.4-6-3.3-16.4.4m23 33c-9.7 7.3-11.5 9.4-11.5 13.1 0 3.1 3.4 7.4 6.6 8.3 2.5.8 8.6-3.2 17.2-11.1 6.9-6.5 7.7-9.1 4.1-13.7-3.4-4.3-7.1-3.5-16.4 3.4m31.4 21.4c-2.3 1.1-11.2 14.2-12.3 18.1-.3 1.2.3 3.4 1.4 5.3 1.7 2.7 2.6 3.2 5.8 3.2 4.3 0 6.8-2.1 12-10.5 4.5-7.4 4.8-9.6 1.8-13.2-3.1-3.6-5.6-4.5-8.7-2.9m128.2 2.2c-1.7 1.4-3.1 3.6-3.1 4.7 0 2.9 7.6 17.7 10.2 19.9 3.9 3.4 9.7 1.9 12.4-3.4 1.5-2.9 1.5-3.3-1.8-9.6-3.9-7.7-9.6-14.2-12.6-14.2-1.1 0-3.4 1.2-5.1 2.6m-64.5 4.7c-2.8 2-3.6 8.8-2.9 25.1.7 17.1 1.4 18.6 8.2 18.6 3.1 0 4.4-.6 6-2.6 1.9-2.5 2.1-4 2.1-20.1 0-17.1 0-17.4-2.5-19.8-2.7-2.8-8-3.3-10.9-1.2m-36.2 10.2c-2.5 3.8-6.4 15.2-6.4 18.5 0 1.9.9 3.5 2.6 4.9 6 4.7 11.1 1.3 14.3-9.6 2.7-9.1 2.6-11.4-.2-14.1-3.3-3.1-8.2-2.9-10.3.3m71.7.1c-1.2 1.5-2.1 3.1-2.1 3.7 0 2.8 5.5 17.8 7.2 19.7 4.1 4.4 13.8 1.1 13.8-4.8 0-2.6-4.7-15.8-6.7-18.9-2.3-3.5-9.4-3.3-12.2.3"/></svg>